<?xml version="1.0" encoding="UTF-8"?>
<svg version="1.1" xmlns="http://www.w3.org/2000/svg" width="17" height="35">
<path d="M0 0 C2.0625 1.6875 2.0625 1.6875 3 4 C2.6875 7.25 2.6875 7.25 2 10 C2.33 10 2.66 10 3 10 C3.125 15.75 3.125 15.75 2 18 C2.29868656 20.00546689 2.63371323 22.00577205 3 24 C3 24.99 3 25.98 3 27 C3.20625 27.845625 3.4125 28.69125 3.625 29.5625 C3.74875 30.366875 3.8725 31.17125 4 32 C3.34 32.66 2.68 33.32 2 34 C-1.29714793 33.67028521 -2.6226839 33.3773161 -5 31 C-5.33 31.99 -5.66 32.98 -6 34 C-7.32 33.67 -8.64 33.34 -10 33 C-10 27.33333333 -10 21.66666667 -10 16 C-10.33 15.34 -10.66 14.68 -11 14 C-10.835 13.071875 -10.67 12.14375 -10.5 11.1875 C-10.0027573 8.01757776 -10.33344162 6.08283249 -11 3 C-10.67 2.01 -10.34 1.02 -10 0 C-6.73927615 -1.63036193 -3.41133706 -0.89112478 0 0 Z M-8 20 C-4 21 -4 21 -4 21 Z M-7 22 C-7 22.33 -7 22.66 -7 23 C-5.02 23 -3.04 23 -1 23 C-1 22.67 -1 22.34 -1 22 C-2.98 22 -4.96 22 -7 22 Z " fill="#8C8362" transform="translate(12,1)"/>
<path d="M0 0 C1.80859375 0.59375 1.80859375 0.59375 3.30859375 2.65625 C3.47359375 3.295625 3.63859375 3.935 3.80859375 4.59375 C0.35002527 7.54370547 -2.9916211 9.82050738 -7.19140625 11.59375 C-7.85140625 11.26375 -8.51140625 10.93375 -9.19140625 10.59375 C-9.19140625 9.60375 -9.19140625 8.61375 -9.19140625 7.59375 C-9.25328125 6.76875 -9.31515625 5.94375 -9.37890625 5.09375 C-9.19140625 2.59375 -9.19140625 2.59375 -8.19140625 0.71875 C-5.34492177 -0.88239752 -3.16451723 -0.51096792 0 0 Z " fill="#3F3538" transform="translate(10.19140625,0.40625)"/>
<path d="M0 0 C0.33 0.99 0.66 1.98 1 3 C1.99 2.34 2.98 1.68 4 1 C6.33199388 0.92094936 8.66832622 0.91201231 11 1 C11.66 2.98 12.32 4.96 13 7 C12.34 7.66 11.68 8.32 11 9 C7.70285207 8.67028521 6.3773161 8.3773161 4 6 C3.67 6.99 3.34 7.98 3 9 C1.68 8.67 0.36 8.34 -1 8 C-1.04241723 5.66705225 -1.04092937 3.33297433 -1 1 C-0.67 0.67 -0.34 0.34 0 0 Z " fill="#352A2F" transform="translate(3,26)"/>
<path d="M0 0 C1.33132646 3.99397938 1 7.81404904 1 12 C0.01 12.495 0.01 12.495 -1 13 C-1 12.01 -1 11.02 -1 10 C-1.928125 10.37125 -2.85625 10.7425 -3.8125 11.125 C-4.864375 11.41375 -5.91625 11.7025 -7 12 C-7.99 11.34 -8.98 10.68 -10 10 C-10 9.01 -10 8.02 -10 7 C-9.44570312 6.74605469 -8.89140625 6.49210938 -8.3203125 6.23046875 C-7.59585937 5.88628906 -6.87140625 5.54210937 -6.125 5.1875 C-5.40570312 4.85105469 -4.68640625 4.51460937 -3.9453125 4.16796875 C-1.69457194 3.00532903 -1.69457194 3.00532903 0 0 Z " fill="#594F49" transform="translate(14,5)"/>
<path d="M0 0 C0.66 0.33 1.32 0.66 2 1 C1.34 2.65 0.68 4.3 0 6 C0.99 6.33 1.98 6.66 3 7 C3 7.99 3 8.98 3 10 C1.02 10.66 -0.96 11.32 -3 12 C-2.67 11.01 -2.34 10.02 -2 9 C-2.165 8.175 -2.33 7.35 -2.5 6.5 C-3 4 -3 4 -2 1 C-1.34 0.67 -0.68 0.34 0 0 Z " fill="#5F5936" transform="translate(4,0)"/>
<path d="M0 0 C-1.15173355 2.46800047 -2.04783565 4.04783565 -4 6 C-5.65821773 6.37309899 -7.32577014 6.70700977 -9 7 C-9.99 7.495 -9.99 7.495 -11 8 C-10.67 7.01 -10.34 6.02 -10 5 C-9.34 4.67 -8.68 4.34 -8 4 C-8.33 3.34 -8.66 2.68 -9 2 C-5.86501708 0.14223235 -3.62528568 -0.20140476 0 0 Z " fill="#C2B278" transform="translate(14,22)"/>
<path d="M0 0 C0.33 1.65 0.66 3.3 1 5 C-0.65 5.33 -2.3 5.66 -4 6 C-4 5.34 -4 4.68 -4 4 C-4.66 3.67 -5.32 3.34 -6 3 C-6 2.01 -6 1.02 -6 0 C-3.50907189 -1.24546405 -2.58919267 -0.7767578 0 0 Z " fill="#655D3D" transform="translate(15,28)"/>
<path d="M0 0 C0.33 1.98 0.66 3.96 1 6 C0.01 6.66 -0.98 7.32 -2 8 C-1.67 6.68 -1.34 5.36 -1 4 C-2.65 3.67 -4.3 3.34 -6 3 C-6.33 2.01 -6.66 1.02 -7 0 C-4.3333581 -1.33332095 -2.83319697 -0.67102033 0 0 Z " fill="#363927" transform="translate(14,19)"/>
<path d="M0 0 C0 0.99 0 1.98 0 3 C-2 4.625 -2 4.625 -4 6 C-4 6.33 -4 6.66 -4 7 C-5.98 7.33 -7.96 7.66 -10 8 C-9.4375 5.625 -9.4375 5.625 -8 3 C-4.4375 1.75 -4.4375 1.75 -1 1 C-0.67 0.67 -0.34 0.34 0 0 Z " fill="#CFB581" transform="translate(13,14)"/>
<path d="M0 0 C1 3 1 3 0.0625 5.1875 C-0.4634375 6.0846875 -0.4634375 6.0846875 -1 7 C-3.31 7 -5.62 7 -8 7 C-7.13375 6.38125 -7.13375 6.38125 -6.25 5.75 C-3.97483401 3.98042645 -2.00004601 2.07147622 0 0 Z " fill="#2F251E" transform="translate(14,5)"/>
<path d="M0 0 C2.31 0.33 4.62 0.66 7 1 C7 1.99 7 2.98 7 4 C5.1875 4.625 5.1875 4.625 3 5 C2.01 4.34 1.02 3.68 0 3 C0 2.01 0 1.02 0 0 Z " fill="#161719" transform="translate(4,12)"/>
<path d="" fill="#000000" transform="translate(0,0)"/>
<path d="" fill="#000000" transform="translate(0,0)"/>
<path d="" fill="#000000" transform="translate(0,0)"/>
</svg>
