<svg xmlns="http://www.w3.org/2000/svg" width="124" height="40" fill="none"><path fill="#E8E8E8" d="M34 22.25v3.375H7V22.25zm-4.5 5.625v2.25h-18v-2.25zm-4.5 4.5V33.5h-9v-1.125z"/><path fill="#E8E8E8" fill-rule="evenodd" d="M22.75 6.5h-4.5v8.522l-6.133-6.633-3 2.611 3.895 4.5H4.789L4.75 20h31.46l.04-4.5h-7.999l3.866-4.5-3-2.611-6.367 6.885V6.5ZM12.625 20c1.174 0 2.506-.256 4.5-2.25 2.571-2.571 4.179-2.571 6.75 0 1.994 1.994 3.587 2.25 4.5 2.25h-15.75Z" clip-rule="evenodd"/><path fill="#E8E8E8" d="m56.943 18.456-2.694.477a3.19 3.19 0 0 0-.537-.984 2.656 2.656 0 0 0-.975-.766c-.41-.199-.925-.298-1.541-.298-.842 0-1.544.189-2.108.567-.563.37-.845.851-.845 1.441 0 .51.189.922.567 1.233.377.312.987.567 1.83.766l2.425.557c1.406.325 2.453.825 3.142 1.501.69.676 1.035 1.555 1.035 2.635 0 .915-.266 1.73-.796 2.446-.524.71-1.256 1.266-2.197 1.67-.935.405-2.019.607-3.252.607-1.71 0-3.105-.364-4.186-1.093-1.08-.736-1.743-1.78-1.989-3.133l2.874-.437c.179.749.547 1.316 1.104 1.7.556.378 1.282.567 2.177.567.975 0 1.754-.202 2.337-.607.583-.41.875-.911.875-1.501a1.56 1.56 0 0 0-.537-1.203c-.351-.325-.892-.57-1.62-.736l-2.586-.567c-1.425-.324-2.48-.842-3.162-1.55-.676-.71-1.014-1.608-1.014-2.695 0-.902.252-1.69.756-2.367.503-.676 1.2-1.203 2.088-1.58.888-.385 1.905-.578 3.052-.578 1.65 0 2.95.358 3.898 1.074.948.71 1.574 1.66 1.88 2.854Zm5.772 11.882c-.968 0-1.843-.179-2.625-.537a4.421 4.421 0 0 1-1.86-1.58c-.45-.69-.676-1.535-.676-2.536 0-.862.166-1.571.497-2.128a3.67 3.67 0 0 1 1.343-1.323 7.01 7.01 0 0 1 1.89-.735 18.792 18.792 0 0 1 2.127-.378l2.227-.259c.57-.073.985-.189 1.243-.348.259-.159.388-.417.388-.775v-.07c0-.868-.245-1.541-.736-2.018-.484-.478-1.206-.716-2.168-.716-1 0-1.79.222-2.366.666-.57.437-.965.925-1.183 1.462l-2.794-.637c.331-.928.815-1.677 1.451-2.247a5.89 5.89 0 0 1 2.218-1.253 8.657 8.657 0 0 1 2.635-.398c.61 0 1.256.073 1.939.22a5.654 5.654 0 0 1 1.929.775c.603.378 1.097.918 1.481 1.62.385.697.577 1.601.577 2.715V30h-2.904v-2.088h-.119c-.192.384-.48.762-.865 1.134-.384.37-.878.679-1.482.924-.603.245-1.325.368-2.167.368Zm.646-2.386c.822 0 1.525-.163 2.108-.488.59-.324 1.038-.749 1.343-1.272.311-.53.467-1.097.467-1.7v-1.97c-.106.107-.312.206-.617.299-.298.086-.64.162-1.024.229-.384.06-.759.116-1.123.169-.365.046-.67.086-.915.12a7.366 7.366 0 0 0-1.581.367c-.47.172-.849.42-1.134.746-.278.318-.417.742-.417 1.272 0 .736.271 1.293.815 1.67.544.372 1.236.558 2.078.558Zm21.13-13.225L78.95 30h-3.18l-5.548-15.273h3.192L77.28 26.48h.16l3.857-11.753h3.192Zm4.56 15.611c-.968 0-1.843-.179-2.625-.537a4.421 4.421 0 0 1-1.86-1.58c-.45-.69-.675-1.535-.675-2.536 0-.862.165-1.571.497-2.128a3.668 3.668 0 0 1 1.342-1.323 7.01 7.01 0 0 1 1.89-.735 18.792 18.792 0 0 1 2.127-.378l2.228-.259c.57-.073.984-.189 1.243-.348.258-.159.387-.417.387-.775v-.07c0-.868-.245-1.541-.736-2.018-.483-.478-1.206-.716-2.167-.716-1.001 0-1.79.222-2.367.666-.57.437-.964.925-1.183 1.462l-2.794-.637c.332-.928.816-1.677 1.452-2.247a5.89 5.89 0 0 1 2.217-1.253 8.657 8.657 0 0 1 2.635-.398c.61 0 1.256.073 1.939.22.69.138 1.332.397 1.929.775.603.378 1.097.918 1.481 1.62.385.697.577 1.601.577 2.715V30h-2.903v-2.088h-.12c-.192.384-.48.762-.864 1.134-.385.37-.879.679-1.482.924s-1.326.368-2.168.368Zm.647-2.386c.822 0 1.524-.163 2.108-.488.59-.324 1.037-.749 1.342-1.272.311-.53.467-1.097.467-1.7v-1.97c-.106.107-.311.206-.616.299-.298.086-.64.162-1.024.229-.385.06-.76.116-1.124.169-.365.046-.67.086-.915.12a7.366 7.366 0 0 0-1.58.367c-.471.172-.85.42-1.134.746-.279.318-.418.742-.418 1.272 0 .736.272 1.293.816 1.67.543.372 1.236.558 2.078.558Zm11.583-7.02V30h-2.973V14.727h2.854v2.486h.189a4.363 4.363 0 0 1 1.65-1.949c.756-.49 1.707-.736 2.854-.736 1.041 0 1.952.22 2.734.657.783.43 1.389 1.074 1.82 1.929.431.855.646 1.912.646 3.171V30h-2.973v-9.357c0-1.107-.288-1.972-.865-2.595-.577-.63-1.369-.944-2.376-.944-.69 0-1.303.149-1.84.447-.53.298-.951.736-1.262 1.313-.305.57-.458 1.26-.458 2.068Zm18.651-6.205v2.387h-8.343v-2.387h8.343Zm-6.105-3.659h2.973v14.448c0 .576.086 1.01.258 1.302.173.285.395.48.666.587.279.1.58.149.905.149.239 0 .448-.017.627-.05s.318-.06.417-.08l.537 2.457a4.95 4.95 0 0 1-.736.198 5.82 5.82 0 0 1-1.193.12 5.233 5.233 0 0 1-2.187-.418 3.756 3.756 0 0 1-1.641-1.352c-.418-.61-.626-1.375-.626-2.297V11.068Z"/></svg>