<?xml version="1.0" standalone="no"?>
<!DOCTYPE svg PUBLIC "-//W3C//DTD SVG 20010904//EN"
 "http://www.w3.org/TR/2001/REC-SVG-20010904/DTD/svg10.dtd">
<svg version="1.0" xmlns="http://www.w3.org/2000/svg"
 width="275.000000pt" height="428.000000pt" viewBox="0 0 275.000000 428.000000"
 preserveAspectRatio="xMidYMid meet">

<g transform="translate(0.000000,428.000000) scale(0.100000,-0.100000)"
fill="#000000" stroke="none">
<path d="M521 3877 c-23 -11 -25 -17 -22 -77 1 -36 18 -175 37 -310 l34 -244
-33 -36 -32 -35 32 29 32 29 5 -24 c3 -13 10 -62 16 -109 6 -47 17 -125 25
-175 8 -49 60 -412 115 -805 55 -393 123 -875 151 -1070 54 -390 71 -458 144
-582 185 -317 570 -464 852 -326 62 30 62 30 46 54 -14 23 -14 24 2 17 12 -4
16 -3 12 4 -4 7 8 21 28 33 42 26 118 109 151 166 37 62 63 145 75 233 13 99
19 60 -186 1276 -91 539 -199 1187 -241 1440 -42 253 -80 463 -83 467 -6 7
-970 58 -1083 58 -29 0 -64 -6 -77 -13z m206 -1039 c-3 -8 -6 -5 -6 6 -1 11 2
17 5 13 3 -3 4 -12 1 -19z m10 -60 c-3 -7 -5 -2 -5 12 0 14 2 19 5 13 2 -7 2
-19 0 -25z m10 -70 c-3 -7 -5 -2 -5 12 0 14 2 19 5 13 2 -7 2 -19 0 -25z m10
-65 c-3 -10 -5 -4 -5 12 0 17 2 24 5 18 2 -7 2 -21 0 -30z m10 -70 c-3 -10 -5
-2 -5 17 0 19 2 27 5 18 2 -10 2 -26 0 -35z m43 -57 c8 -3 5 -4 -7 -2 -24 4
-29 -9 -14 -33 5 -8 16 -11 25 -8 8 3 18 2 21 -3 3 -5 -6 -12 -20 -16 -32 -8
-32 -27 0 -48 25 -16 25 -16 25 10 0 55 14 11 17 -53 4 -91 13 -93 13 -2 0 49
3 69 9 59 6 -8 8 -17 5 -21 -2 -4 3 -12 10 -18 10 -8 16 -9 21 -1 3 6 11 7 17
4 7 -4 7 -9 -1 -13 -8 -5 -7 -13 4 -27 14 -18 14 -18 15 8 0 32 16 29 43 -8
17 -23 18 -27 3 -43 -16 -17 -12 -31 7 -31 6 0 7 3 4 7 -4 3 2 13 13 20 18 13
24 13 46 -2 14 -9 39 -15 56 -13 21 2 32 -2 35 -12 4 -11 2 -12 -5 -2 -11 16
-62 -1 -62 -22 0 -7 -7 -17 -16 -20 -8 -3 -12 -11 -9 -17 4 -6 -2 -13 -14 -16
-12 -3 -21 -9 -21 -14 0 -13 57 17 63 33 4 10 8 10 17 -2 8 -12 9 -8 4 15 l-7
29 26 -17 c15 -10 33 -14 44 -10 16 6 16 5 4 -10 -12 -15 -11 -17 8 -17 20 0
20 -1 3 -20 -14 -17 -18 -18 -20 -5 -4 18 -42 20 -42 2 0 -8 11 -19 24 -25 25
-11 43 -61 30 -84 -5 -9 -4 -10 4 -3 5 6 13 19 16 30 3 11 3 -4 0 -32 -4 -33
-2 -53 4 -53 6 0 11 8 10 18 0 9 3 31 7 48 6 25 2 36 -17 54 -18 18 -19 22 -5
16 10 -3 22 -6 27 -6 13 0 22 -52 11 -63 -17 -17 -13 -40 5 -33 10 4 26 -1 37
-11 15 -13 21 -15 24 -5 5 14 23 16 23 2 0 -5 -8 -18 -18 -28 -17 -17 -20 -17
-29 -3 -6 9 -14 13 -18 9 -4 -4 -2 -14 5 -23 10 -12 8 -16 -14 -26 -33 -15
-33 -25 -1 -33 21 -5 25 -12 25 -46 0 -31 -4 -40 -17 -40 -13 0 -14 -3 -5 -12
10 -10 16 -7 28 10 18 27 38 27 84 2 31 -17 32 -19 12 -20 -14 0 -21 -4 -16
-11 3 -6 14 -9 23 -7 9 2 24 -4 34 -14 16 -17 16 -18 -3 -18 -11 0 -20 -4 -20
-10 0 -5 5 -10 10 -10 6 0 10 -5 10 -10 0 -6 -11 -8 -25 -4 -16 4 -25 2 -25
-5 0 -6 14 -14 30 -18 17 -3 33 -9 35 -14 9 -13 -16 -22 -28 -10 -13 13 -67
15 -67 2 0 -5 10 -11 22 -13 30 -4 34 -24 6 -32 -17 -5 -19 -9 -8 -12 8 -3 25
-10 37 -16 31 -15 53 -3 53 29 0 20 3 24 9 14 5 -7 13 -11 17 -8 5 3 15 -2 23
-10 12 -13 11 -14 -8 -8 -15 4 -21 2 -21 -8 0 -8 -7 -17 -15 -21 -8 -3 -15
-14 -15 -25 0 -18 20 -25 92 -33 15 -2 15 -4 3 -18 -8 -9 -13 -26 -10 -37 3
-16 0 -20 -12 -16 -10 4 -11 8 -3 13 17 11 -41 29 -73 23 -15 -3 -32 -11 -38
-19 -13 -16 -9 -17 23 -5 32 12 66 -10 43 -29 -11 -9 -12 -17 -4 -32 12 -22 6
-34 -10 -23 -6 3 -11 22 -11 41 0 40 -15 44 -55 12 l-28 -22 5 27 c3 16 1 24
-5 20 -5 -3 -7 -22 -4 -42 5 -37 -4 -51 -37 -64 -10 -4 -16 -10 -13 -14 6 -5
23 5 73 41 8 7 22 5 41 -4 15 -8 46 -13 68 -13 22 1 32 -1 22 -3 -10 -3 -30
-12 -45 -20 l-27 -14 28 0 c15 0 27 -4 27 -9 0 -5 8 -12 18 -15 9 -3 -4 -3
-29 -1 -56 5 -89 -3 -89 -21 0 -12 -13 -18 -24 -11 -2 1 -13 -6 -24 -16 -17
-15 -25 -17 -44 -7 -22 11 -22 10 -4 -4 18 -15 15 -21 -9 -16 -5 1 -7 -2 -3
-6 9 -8 -10 -34 -24 -34 -5 0 -6 6 -2 13 4 6 4 9 0 5 -4 -3 -8 -10 -8 -15 0
-4 -13 -24 -28 -43 -15 -19 -33 -49 -41 -67 -7 -17 -17 -29 -23 -26 -5 3 -6 1
-2 -5 4 -6 1 -22 -5 -34 -7 -13 -14 -41 -16 -63 -2 -22 -7 -51 -12 -65 -4 -14
-5 -34 -1 -45 4 -11 3 -33 -1 -48 -6 -21 -4 -36 8 -53 9 -15 11 -24 4 -24 -17
0 -13 -14 9 -38 17 -18 19 -26 10 -42 -11 -21 -40 -28 -40 -10 0 6 7 10 16 10
9 0 14 7 12 17 -2 11 -11 17 -21 15 -11 -2 -16 3 -15 15 4 49 -1 55 -36 49
-30 -6 -34 -4 -40 18 -3 14 -2 36 4 50 7 19 6 24 -4 20 -13 -5 -20 37 -177
1121 -43 302 -79 555 -79 563 0 10 4 11 13 5 6 -6 19 -13 27 -17z m90 -69 c9
-3 4 -6 -12 -6 -27 -1 -35 8 -21 22 4 4 9 3 12 -1 3 -5 13 -12 21 -15z m80 19
c0 -3 -4 -8 -10 -11 -5 -3 -10 -1 -10 4 0 6 5 11 10 11 6 0 10 -2 10 -4z m-55
-56 c3 -5 1 -10 -4 -10 -6 0 -11 5 -11 10 0 6 2 10 4 10 3 0 8 -4 11 -10z m35
0 c0 -5 -5 -10 -11 -10 -5 0 -7 5 -4 10 3 6 8 10 11 10 2 0 4 -4 4 -10z m150
-51 c0 -6 -4 -7 -10 -4 -5 3 -10 11 -10 16 0 6 5 7 10 4 6 -3 10 -11 10 -16z
m-50 -19 c0 -5 -4 -10 -10 -10 -5 0 -10 5 -10 10 0 6 5 10 10 10 6 0 10 -4 10
-10z m55 -20 c3 -5 -1 -10 -9 -10 -8 0 -18 5 -21 10 -3 6 1 10 9 10 8 0 18 -4
21 -10z m40 0 c3 -5 1 -10 -4 -10 -6 0 -11 5 -11 10 0 6 2 10 4 10 3 0 8 -4
11 -10z m90 -30 c-3 -5 -12 -10 -18 -10 -7 0 -6 4 3 10 19 12 23 12 15 0z
m-13 -45 c0 -5 -5 -11 -11 -13 -6 -2 -11 4 -11 13 0 9 5 15 11 13 6 -2 11 -8
11 -13z m123 -105 c3 -5 1 -10 -4 -10 -6 0 -11 5 -11 10 0 6 2 10 4 10 3 0 8
-4 11 -10z m-45 -70 c0 -5 -4 -10 -10 -10 -5 0 -10 5 -10 10 0 6 5 10 10 10 6
0 10 -4 10 -10z m65 -60 c3 -5 1 -10 -4 -10 -6 0 -11 5 -11 10 0 6 2 10 4 10
3 0 8 -4 11 -10z m62 -16 c-3 -3 -12 -4 -19 -1 -8 3 -5 6 6 6 11 1 17 -2 13
-5z m-87 -24 c0 -5 -4 -10 -10 -10 -5 0 -10 5 -10 10 0 6 5 10 10 10 6 0 10
-4 10 -10z m-5 -27 c20 -15 20 -15 -2 -10 -13 3 -23 1 -23 -4 0 -5 0 -12 0
-16 0 -5 5 -8 12 -8 6 0 13 -6 16 -12 9 -30 -40 0 -51 30 -14 37 13 48 48 20z
m104 -64 c8 -3 2 -10 -15 -18 -21 -9 -26 -9 -17 -1 6 7 9 20 6 29 -3 10 -2 12
4 5 4 -6 14 -13 22 -15z m-59 -10 c0 -6 -4 -7 -10 -4 -5 3 -10 11 -10 16 0 6
5 7 10 4 6 -3 10 -11 10 -16z m125 -59 c3 -5 1 -10 -4 -10 -6 0 -11 5 -11 10
0 6 2 10 4 10 3 0 8 -4 11 -10z m-60 -59 c3 -5 1 -12 -5 -16 -5 -3 -10 1 -10
9 0 18 6 21 15 7z m74 -111 c0 -10 -3 -8 -9 5 -12 27 -12 43 0 25 5 -8 9 -22
9 -30z m-103 2 c-22 -5 -30 3 -21 18 5 8 11 7 22 -2 15 -12 14 -13 -1 -16z
m115 -55 c15 4 18 2 13 -11 -12 -32 -47 -10 -43 27 1 7 3 5 6 -4 3 -11 11 -15
24 -12z m-37 -143 c3 -8 10 -13 15 -10 5 3 11 -3 14 -13 3 -14 -1 -18 -19 -18
-13 0 -24 2 -24 6 0 3 -3 16 -6 29 -7 25 11 31 20 6z m-76 -11 c5 -18 -23 -16
-39 3 -11 14 -10 15 11 12 13 -1 25 -9 28 -15z m221 -40 c3 -2 -12 -2 -31 -1
-20 2 -34 6 -31 11 4 6 52 -1 62 -10z m-65 -27 c9 3 16 1 16 -5 0 -19 -28 -24
-45 -8 -19 19 -20 34 -1 18 7 -6 21 -9 30 -5z m-27 -42 c-3 -3 -12 -4 -19 -1
-8 3 -5 6 6 6 11 1 17 -2 13 -5z m-132 -14 c-3 -5 -12 -10 -18 -10 -7 0 -6 4
3 10 19 12 23 12 15 0z m299 -98 c133 -67 236 -187 278 -325 29 -98 23 -248
-15 -327 -139 -291 -517 -304 -728 -25 -99 131 -136 318 -89 454 37 110 108
193 199 234 71 32 100 36 190 33 74 -4 93 -9 165 -44z m343 -334 c-3 -8 -6 -5
-6 6 -1 11 2 17 5 13 3 -3 4 -12 1 -19z m16 -157 c-5 -107 -41 -202 -102 -271
l-31 -35 31 48 c51 79 82 179 88 287 3 62 7 85 11 65 3 -16 5 -59 3 -94z
m-999 10 c3 -5 0 -14 -8 -20 -10 -9 -15 -8 -19 3 -9 22 15 37 27 17z m4 -55
c24 1 28 -6 11 -23 -18 -18 13 -46 31 -30 10 9 11 9 6 0 -5 -9 0 -13 13 -13
10 0 22 5 24 10 3 6 4 5 3 -2 -1 -6 -14 -15 -29 -19 -19 -5 -30 -2 -43 12 -9
10 -21 16 -26 13 -5 -3 -6 7 -3 23 5 20 4 24 -3 14 -8 -11 -12 -9 -23 10 -10
20 -10 22 2 13 8 -5 24 -9 37 -8z m75 -41 c-3 -9 -8 -14 -10 -11 -3 3 -2 9 2
15 9 16 15 13 8 -4z m-45 -70 c-3 -3 -9 2 -12 12 -6 14 -5 15 5 6 7 -7 10 -15
7 -18z m37 -45 c3 -5 1 -10 -4 -10 -6 0 -11 5 -11 10 0 6 2 10 4 10 3 0 8 -4
11 -10z"/>
<path d="M812 2340 c0 -14 2 -19 5 -12 2 6 2 18 0 25 -3 6 -5 1 -5 -13z"/>
<path d="M900 2326 c0 -14 5 -26 10 -26 6 0 10 9 10 19 0 11 -4 23 -10 26 -6
4 -10 -5 -10 -19z"/>
<path d="M960 2338 c0 -18 18 -34 28 -24 3 4 -2 14 -11 23 -16 16 -17 16 -17
1z"/>
<path d="M944 2290 c3 -14 6 -34 6 -44 0 -14 3 -17 10 -10 7 7 5 21 -5 45 -11
24 -15 27 -11 9z"/>
<path d="M1026 2282 c-9 -8 14 -32 30 -32 21 0 17 27 -5 33 -11 3 -22 2 -25
-1z"/>
<path d="M851 2214 c0 -11 3 -14 6 -6 3 7 2 16 -1 19 -3 4 -6 -2 -5 -13z"/>
<path d="M1032 2216 c7 -8 15 -12 17 -11 5 6 -10 25 -20 25 -5 0 -4 -6 3 -14z"/>
<path d="M1130 2210 c0 -5 7 -10 16 -10 8 0 12 5 9 10 -3 6 -10 10 -16 10 -5
0 -9 -4 -9 -10z"/>
<path d="M1090 2180 c-8 -5 -12 -12 -9 -15 8 -8 39 5 39 16 0 11 -11 11 -30
-1z"/>
<path d="M995 2160 c3 -5 8 -10 11 -10 2 0 4 5 4 10 0 6 -5 10 -11 10 -5 0 -7
-4 -4 -10z"/>
<path d="M1037 2153 c-11 -10 -8 -43 4 -43 6 0 24 -9 40 -21 16 -11 33 -18 38
-15 5 4 11 1 13 -6 3 -9 9 -8 22 5 11 10 15 24 11 37 -7 22 -20 26 -30 10 -3
-5 -1 -10 4 -10 6 0 11 -7 11 -15 0 -17 -16 -20 -25 -5 -3 6 -17 10 -31 10
-13 0 -24 5 -24 10 0 6 -7 10 -16 10 -11 0 -15 6 -11 20 5 21 4 24 -6 13z"/>
<path d="M1100 2150 c0 -5 -10 -11 -22 -11 -21 -1 -21 -2 -3 -6 11 -3 26 -10
33 -15 8 -7 12 -7 12 0 0 6 -6 13 -12 15 -10 4 -10 6 0 6 14 1 17 21 2 21 -5
0 -10 -4 -10 -10z"/>
<path d="M1036 2073 c-6 -14 -5 -15 5 -6 7 7 10 15 7 18 -3 3 -9 -2 -12 -12z"/>
<path d="M1144 2038 c-4 -7 -3 -10 1 -5 5 4 17 -1 28 -10 19 -17 19 -17 16 2
-5 23 -34 32 -45 13z"/>
<path d="M1236 2007 c3 -10 9 -15 12 -12 3 3 0 11 -7 18 -10 9 -11 8 -5 -6z"/>
<path d="M1100 1980 c-13 -8 -12 -10 3 -10 9 0 17 5 17 10 0 12 -1 12 -20 0z"/>
<path d="M1172 1949 c2 -6 8 -10 13 -10 5 0 11 4 13 10 2 6 -4 11 -13 11 -9 0
-15 -5 -13 -11z"/>
<path d="M1185 1900 c-3 -5 -1 -10 4 -10 6 0 11 5 11 10 0 6 -2 10 -4 10 -3 0
-8 -4 -11 -10z"/>
<path d="M1220 1895 c0 -17 2 -18 24 -9 18 7 12 24 -10 24 -8 0 -14 -7 -14
-15z"/>
<path d="M1070 1886 c0 -2 7 -7 16 -10 8 -3 12 -2 9 4 -6 10 -25 14 -25 6z"/>
<path d="M1191 1864 c0 -11 3 -14 6 -6 3 7 2 16 -1 19 -3 4 -6 -2 -5 -13z"/>
<path d="M1250 1870 c0 -5 5 -10 11 -10 5 0 7 5 4 10 -3 6 -8 10 -11 10 -2 0
-4 -4 -4 -10z"/>
<path d="M1316 1833 c-3 -3 -3 -10 0 -14 7 -12 34 -11 34 0 0 11 -26 22 -34
14z"/>
<path d="M1190 1809 c0 -5 5 -7 10 -4 6 3 10 8 10 11 0 2 -4 4 -10 4 -5 0 -10
-5 -10 -11z"/>
<path d="M1218 1803 c-9 -12 -9 -15 0 -9 6 4 12 3 12 -2 0 -5 7 -9 15 -9 19 0
19 5 1 22 -12 12 -16 12 -28 -2z"/>
<path d="M1354 1785 c6 -16 -59 -69 -73 -60 -5 3 -12 1 -16 -5 -3 -5 0 -10 7
-10 7 0 24 -3 38 -5 22 -5 22 -4 5 4 -14 7 -15 10 -5 10 15 1 80 52 80 63 0 3
-9 8 -21 11 -15 4 -19 2 -15 -8z"/>
<path d="M1210 1718 c0 -4 4 -8 9 -8 6 0 12 4 15 8 3 5 -1 9 -9 9 -8 0 -15 -4
-15 -9z"/>
<path d="M1260 1671 c0 -5 7 -12 16 -15 14 -5 15 -4 4 9 -14 17 -20 19 -20 6z"/>
<path d="M1318 1668 c8 -8 8 -17 1 -30 -16 -30 -2 -34 20 -7 21 26 13 49 -17
49 -12 0 -13 -3 -4 -12z"/>
<path d="M1340 1601 c0 -5 9 -11 20 -14 24 -6 27 8 4 17 -21 8 -24 8 -24 -3z"/>
<path d="M1270 1581 c0 -10 19 -25 25 -20 1 2 -3 10 -11 17 -8 7 -14 8 -14 3z"/>
<path d="M1400 1555 c-15 -38 -30 -46 -31 -17 0 13 -2 14 -6 2 -3 -8 -11 -18
-17 -22 -20 -13 1 -18 32 -7 18 6 32 17 32 25 0 8 4 14 8 14 4 0 8 9 9 20 3
31 -12 23 -27 -15z"/>
<path d="M1450 1542 c0 -10 60 -25 68 -17 8 8 0 12 -35 20 -19 4 -33 3 -33 -3z"/>
<path d="M1240 1490 c0 -5 5 -10 10 -10 6 0 10 5 10 10 0 6 -4 10 -10 10 -5 0
-10 -4 -10 -10z"/>
<path d="M1310 1491 c0 -6 5 -13 10 -16 6 -3 10 1 10 9 0 9 -4 16 -10 16 -5 0
-10 -4 -10 -9z"/>
<path d="M1285 1440 c3 -5 11 -10 16 -10 6 0 7 5 4 10 -3 6 -11 10 -16 10 -6
0 -7 -4 -4 -10z"/>
<path d="M1380 1370 c0 -5 10 -10 23 -10 18 0 19 2 7 10 -19 13 -30 13 -30 0z"/>
<path d="M1295 1330 c-13 -5 -14 -9 -5 -9 8 0 24 4 35 9 13 5 14 9 5 9 -8 0
-24 -4 -35 -9z"/>
<path d="M1357 1319 c7 -7 15 -10 18 -7 3 3 -2 9 -12 12 -14 6 -15 5 -6 -5z"/>
<path d="M1180 1194 c0 -8 5 -12 10 -9 6 4 8 11 5 16 -9 14 -15 11 -15 -7z"/>
<path d="M1157 1153 c-4 -3 -7 -11 -7 -17 0 -6 5 -5 12 2 6 6 9 14 7 17 -3 3
-9 2 -12 -2z"/>
<path d="M1098 1023 c7 -3 16 -2 19 1 4 3 -2 6 -13 5 -11 0 -14 -3 -6 -6z"/>
<path d="M1021 884 c0 -11 3 -14 6 -6 3 7 2 16 -1 19 -3 4 -6 -2 -5 -13z"/>
<path d="M1060 840 c0 -5 5 -10 10 -10 6 0 10 5 10 10 0 6 -4 10 -10 10 -5 0
-10 -4 -10 -10z"/>
<path d="M1040 810 c0 -5 5 -10 10 -10 6 0 10 5 10 10 0 6 -4 10 -10 10 -5 0
-10 -4 -10 -10z"/>
<path d="M1077 794 c-15 -20 -15 -24 -3 -24 8 0 18 9 21 21 10 29 3 31 -18 3z"/>
</g>
</svg>
